<svg width="23" height="26" viewBox="0 0 23 26" fill="none" xmlns="http://www.w3.org/2000/svg">
<path d="M2.61703 25.0219H19.5958C20.9334 25.0219 22.0213 23.9341 22.0213 22.5964V9.25596C22.0213 8.93432 21.8935 8.62585 21.6661 8.39841C21.4386 8.17097 21.1302 8.0432 20.8085 8.0432H17.1702V6.83043C17.1702 3.48684 14.45 0.766602 11.1064 0.766602C7.7628 0.766602 5.04256 3.48684 5.04256 6.83043V8.0432H1.40426C1.08262 8.0432 0.774146 8.17097 0.546709 8.39841C0.319271 8.62585 0.191498 8.93432 0.191498 9.25596V22.5964C0.191498 23.9341 1.27935 25.0219 2.61703 25.0219ZM7.46809 6.83043C7.46809 4.82452 9.10048 3.19213 11.1064 3.19213C13.1123 3.19213 14.7447 4.82452 14.7447 6.83043V8.0432H7.46809V6.83043ZM2.61703 10.4687H5.04256V12.8943H7.46809V10.4687H14.7447V12.8943H17.1702V10.4687H19.5958L19.5982 22.5964H2.61703V10.4687Z" fill="#F8F7FA"/>
</svg>
