<svg width="24" height="26" viewBox="0 0 24 26" fill="none" xmlns="http://www.w3.org/2000/svg">
<path d="M3.16699 25.0889H20.5986C21.972 25.0889 23.0889 23.972 23.0889 22.5986V8.90234C23.0889 8.57212 22.9577 8.25542 22.7242 8.02191C22.4907 7.78841 22.174 7.65723 21.8437 7.65723H18.1084V6.41211C18.1084 2.97932 15.3156 0.186523 11.8828 0.186523C8.45002 0.186523 5.65723 2.97932 5.65723 6.41211V7.65723H1.92187C1.59165 7.65723 1.27495 7.78841 1.04144 8.02191C0.807939 8.25542 0.676758 8.57212 0.676758 8.90234V22.5986C0.676758 23.972 1.79363 25.0889 3.16699 25.0889ZM8.14746 6.41211C8.14746 4.35269 9.82339 2.67676 11.8828 2.67676C13.9422 2.67676 15.6182 4.35269 15.6182 6.41211V7.65723H8.14746V6.41211ZM3.16699 10.1475H5.65723V12.6377H8.14746V10.1475H15.6182V12.6377H18.1084V10.1475H20.5986L20.6011 22.5986H3.16699V10.1475Z" fill="#A8A8A8"/>
</svg>
