<svg width="32" height="32" viewBox="0 0 32 32" fill="none" xmlns="http://www.w3.org/2000/svg">
<path d="M14.07 3.56652C14.6105 3.1123 15.294 2.86328 16 2.86328C16.706 2.86328 17.3895 3.1123 17.93 3.56652L26.93 11.1345C27.265 11.416 27.5344 11.7674 27.7192 12.1641C27.9041 12.5607 27.9999 12.9929 28 13.4305V26.0005C28 26.531 27.7893 27.0397 27.4142 27.4147C27.0391 27.7898 26.5304 28.0005 26 28.0005H20.5C19.9696 28.0005 19.4609 27.7898 19.0858 27.4147C18.7107 27.0397 18.5 26.531 18.5 26.0005V19.0005H13.5V26.0005C13.5 26.531 13.2893 27.0397 12.9142 27.4147C12.5391 27.7898 12.0304 28.0005 11.5 28.0005H6C5.46957 28.0005 4.96086 27.7898 4.58579 27.4147C4.21071 27.0397 4 26.531 4 26.0005V13.4295C4.00011 12.9919 4.09595 12.5597 4.28079 12.1631C4.46562 11.7664 4.73499 11.415 5.07 11.1335L14.07 3.56552V3.56652Z" fill="#A6A6AA"/>
</svg>
