<svg width="31" height="31" viewBox="0 0 31 31" fill="none" xmlns="http://www.w3.org/2000/svg">
<path d="M12 7.90062e-07C10.1228 0.00100412 8.27211 0.442373 6.59654 1.28863C4.92097 2.13489 3.46731 3.36244 2.35238 4.87261C1.23744 6.38278 0.492351 8.13346 0.176978 9.98393C-0.138394 11.8344 -0.0152483 13.733 0.536519 15.5273C1.08829 17.3215 2.05328 18.9612 3.35395 20.3147C4.65462 21.6682 6.25468 22.6977 8.02553 23.3204C9.79637 23.9432 11.6886 24.1418 13.5502 23.9003C15.4117 23.6588 17.1907 22.984 18.744 21.93L26.16 29.34C26.366 29.5611 26.6144 29.7384 26.8904 29.8613C27.1664 29.9843 27.4643 30.0504 27.7664 30.0558C28.0685 30.0611 28.3686 30.0055 28.6488 29.8924C28.929 29.7792 29.1835 29.6108 29.3971 29.3971C29.6108 29.1835 29.7792 28.929 29.8924 28.6488C30.0055 28.3686 30.0611 28.0685 30.0558 27.7664C30.0504 27.4643 29.9843 27.1664 29.8613 26.8904C29.7384 26.6144 29.5611 26.366 29.34 26.16L21.93 18.744C23.1559 16.9397 23.8668 14.8355 23.9863 12.6574C24.1058 10.4794 23.6294 8.30993 22.6082 6.38238C21.5871 4.45484 20.0598 2.84209 18.1907 1.71755C16.3216 0.593008 14.1813 -0.000790624 12 7.90062e-07ZM4.5 12C4.5 10.0109 5.29017 8.10322 6.69669 6.6967C8.10322 5.29018 10.0109 4.5 12 4.5C13.9891 4.5 15.8968 5.29018 17.3033 6.6967C18.7098 8.10322 19.5 10.0109 19.5 12C19.5 13.9891 18.7098 15.8968 17.3033 17.3033C15.8968 18.7098 13.9891 19.5 12 19.5C10.0109 19.5 8.10322 18.7098 6.69669 17.3033C5.29017 15.8968 4.5 13.9891 4.5 12Z" fill="#A6A6AA"/>
</svg>
